<svg xmlns="http://www.w3.org/2000/svg" xmlns:xlink="http://www.w3.org/1999/xlink" width="500" zoomAndPan="magnify" viewBox="0 0 375 126.749998" height="169" preserveAspectRatio="xMidYMid meet" version="1.2"><defs><clipPath id="19ea506a0a"><path d="M 0.367188 0 L 374.628906 0 L 374.628906 126.5 L 0.367188 126.5 Z M 0.367188 0 "/></clipPath><clipPath id="fe1686c347"><path d="M 0.367188 0 L 131 0 L 131 126.5 L 0.367188 126.5 Z M 0.367188 0 "/></clipPath><filter x="0%" y="0%" width="100%" filterUnits="objectBoundingBox" id="2042554673" height="100%"><feColorMatrix values="0 0 0 0 1 0 0 0 0 1 0 0 0 0 1 0 0 0 1 0" type="matrix" in="SourceGraphic"/></filter><clipPath id="fa95031a42"><path d="M 22.042969 20.628906 L 107.375 20.628906 L 107.375 105.960938 L 22.042969 105.960938 Z M 22.042969 20.628906 "/></clipPath><clipPath id="e1487ee572"><path d="M 64.664062 20.628906 C 41.125 20.628906 22.042969 39.710938 22.042969 63.25 C 22.042969 86.789062 41.125 105.867188 64.664062 105.867188 C 88.203125 105.867188 107.28125 86.789062 107.28125 63.25 C 107.28125 39.710938 88.203125 20.628906 64.664062 20.628906 Z M 64.664062 20.628906 "/></clipPath><clipPath id="e2da4f4b53"><rect x="0" width="131" y="0" height="127"/></clipPath><clipPath id="8118ea43ff"><path d="M 24.410156 23.996094 L 87 23.996094 L 87 86.871094 L 24.410156 86.871094 Z M 24.410156 23.996094 "/></clipPath><clipPath id="162667f3cf"><path d="M 55.660156 23.996094 C 38.402344 23.996094 24.410156 37.988281 24.410156 55.246094 C 24.410156 72.507812 38.402344 86.496094 55.660156 86.496094 C 72.917969 86.496094 86.910156 72.507812 86.910156 55.246094 C 86.910156 37.988281 72.917969 23.996094 55.660156 23.996094 Z M 55.660156 23.996094 "/></clipPath><clipPath id="68ea969d78"><rect x="0" width="110" y="0" height="110"/></clipPath><clipPath id="d536738b01"><path d="M 23.773438 23.359375 L 63.445312 23.359375 L 63.445312 63.03125 L 23.773438 63.03125 Z M 23.773438 23.359375 "/></clipPath><clipPath id="96b0f268b4"><path d="M 43.664062 23.359375 C 32.679688 23.359375 23.773438 32.265625 23.773438 43.25 C 23.773438 54.234375 32.679688 63.136719 43.664062 63.136719 C 54.648438 63.136719 63.550781 54.234375 63.550781 43.25 C 63.550781 32.265625 54.648438 23.359375 43.664062 23.359375 Z M 43.664062 23.359375 "/></clipPath><clipPath id="bd76c616f8"><rect x="0" width="87" y="0" height="87"/></clipPath><clipPath id="0be5c56333"><path d="M 0.367188 0 L 143 0 L 143 126.5 L 0.367188 126.5 Z M 0.367188 0 "/></clipPath><clipPath id="410ef2ad2b"><path d="M 9.917969 9.265625 L 117.707031 9.265625 L 117.707031 117.054688 L 9.917969 117.054688 Z M 9.917969 9.265625 "/></clipPath><clipPath id="d2f775d5a0"><path d="M 63.898438 9.265625 C 34.085938 9.265625 9.917969 33.433594 9.917969 63.246094 C 9.917969 93.058594 34.085938 117.226562 63.898438 117.226562 C 93.714844 117.226562 117.882812 93.058594 117.882812 63.246094 C 117.882812 33.433594 93.714844 9.265625 63.898438 9.265625 Z M 63.898438 9.265625 "/></clipPath><clipPath id="869c0550c0"><rect x="0" width="143" y="0" height="127"/></clipPath><clipPath id="9fc8261c48"><path d="M 64.734375 9.265625 L 117.886719 9.265625 L 117.886719 117.234375 L 64.734375 117.234375 Z M 64.734375 9.265625 "/></clipPath><clipPath id="2c983839a9"><path d="M 0.734375 0.265625 L 53.886719 0.265625 L 53.886719 108.234375 L 0.734375 108.234375 Z M 0.734375 0.265625 "/></clipPath><clipPath id="24722dc281"><rect x="0" width="54" y="0" height="109"/></clipPath><clipPath id="251815bc50"><path d="M 65 0 L 356 0 L 356 126.5 L 65 126.5 Z M 65 0 "/></clipPath><clipPath id="dfb9607515"><rect x="0" width="291" y="0" height="127"/></clipPath></defs><g id="1e983db04f"><g clip-rule="nonzero" clip-path="url(#19ea506a0a)"><path style=" stroke:none;fill-rule:nonzero;fill:#ffffff;fill-opacity:1;" d="M 0.367188 0 L 374.632812 0 L 374.632812 126.5 L 0.367188 126.5 Z M 0.367188 0 "/><path style=" stroke:none;fill-rule:nonzero;fill:#d9d9d9;fill-opacity:1;" d="M 0.367188 0 L 374.632812 0 L 374.632812 126.5 L 0.367188 126.5 Z M 0.367188 0 "/></g><path style="fill:none;stroke-width:23;stroke-linecap:butt;stroke-linejoin:miter;stroke:#ff3131;stroke-opacity:1;stroke-miterlimit:4;" d="M -0.00143094 11.499673 L 344.317006 11.499673 " transform="matrix(0.748524,0,0,0.748524,107.352634,54.642223)"/><g clip-rule="nonzero" clip-path="url(#fe1686c347)"><g mask="url(#c3cc080274)" transform="matrix(1,0,0,1,0,0.000000000000018429)"><g clip-path="url(#e2da4f4b53)"><g clip-rule="nonzero" clip-path="url(#fa95031a42)"><g clip-rule="nonzero" clip-path="url(#e1487ee572)"><path style="fill:none;stroke-width:15.2;stroke-linecap:butt;stroke-linejoin:miter;stroke:#ff3131;stroke-opacity:1;stroke-miterlimit:4;" d="M 56.938442 -0.00246313 C 25.491117 -0.00246313 -0.00177721 25.490431 -0.00177721 56.937756 C -0.00177721 88.38508 25.491117 113.872756 56.938442 113.872756 C 88.385766 113.872756 113.873442 88.38508 113.873442 56.937756 C 113.873442 25.490431 88.385766 -0.00246313 56.938442 -0.00246313 Z M 56.938442 -0.00246313 " transform="matrix(0.748524,0,0,0.748524,22.044299,20.63075)"/></g></g></g><mask id="c3cc080274"><g filter="url(#2042554673)"><rect x="0" width="375" y="0" height="126.749998" style="fill:#000000;fill-opacity:0.4;stroke:none;"/></g></mask></g></g><g mask="url(#81ca9a1d95)" transform="matrix(1,0,0,1,9,8)"><g clip-path="url(#68ea969d78)"><g clip-rule="nonzero" clip-path="url(#8118ea43ff)"><g clip-rule="nonzero" clip-path="url(#162667f3cf)"><path style="fill:none;stroke-width:15.2;stroke-linecap:butt;stroke-linejoin:miter;stroke:#ff3131;stroke-opacity:1;stroke-miterlimit:4;" d="M 41.749728 0.00019277 C 18.693926 0.00019277 0.000879003 18.69324 0.000879003 41.749042 C 0.000879003 64.810062 18.693926 83.497891 41.749728 83.497891 C 64.80553 83.497891 83.498577 64.810062 83.498577 41.749042 C 83.498577 18.69324 64.80553 0.00019277 41.749728 0.00019277 Z M 41.749728 0.00019277 " transform="matrix(0.748524,0,0,0.748524,24.409498,23.995949)"/></g></g></g><mask id="81ca9a1d95"><g filter="url(#2042554673)"><rect x="0" width="375" y="0" height="126.749998" style="fill:#000000;fill-opacity:0.6;stroke:none;"/></g></mask></g><g mask="url(#6b9e37d3d6)" transform="matrix(1,0,0,1,21,20)"><g clip-path="url(#bd76c616f8)"><g clip-rule="nonzero" clip-path="url(#d536738b01)"><g clip-rule="nonzero" clip-path="url(#96b0f268b4)"><path style="fill:none;stroke-width:15.2;stroke-linecap:butt;stroke-linejoin:miter;stroke:#ff3131;stroke-opacity:1;stroke-miterlimit:4;" d="M 26.571465 -0.00236738 C 11.896742 -0.00236738 -0.00168115 11.896056 -0.00168115 26.570779 C -0.00168115 41.245501 11.896742 53.138706 26.571465 53.138706 C 41.246187 53.138706 53.139392 41.245501 53.139392 26.570779 C 53.139392 11.896056 41.246187 -0.00236738 26.571465 -0.00236738 Z M 26.571465 -0.00236738 " transform="matrix(0.748524,0,0,0.748524,23.774696,23.361147)"/></g></g></g><mask id="6b9e37d3d6"><g filter="url(#2042554673)"><rect x="0" width="375" y="0" height="126.749998" style="fill:#000000;fill-opacity:0.8;stroke:none;"/></g></mask></g><g clip-rule="nonzero" clip-path="url(#0be5c56333)"><g mask="url(#caa3917076)" transform="matrix(1,0,0,1,0,0.000000000000018429)"><g clip-path="url(#869c0550c0)"><g clip-rule="nonzero" clip-path="url(#410ef2ad2b)"><g clip-rule="nonzero" clip-path="url(#d2f775d5a0)"><path style="fill:none;stroke-width:15.2;stroke-linecap:butt;stroke-linejoin:miter;stroke:#ff3131;stroke-opacity:1;stroke-miterlimit:4;" d="M 72.114855 0.0000967037 C 32.286451 0.0000967037 -0.00106773 32.287615 -0.00106773 72.11602 C -0.00106773 111.944424 32.286451 144.231943 72.114855 144.231943 C 111.948478 144.231943 144.235997 111.944424 144.235997 72.11602 C 144.235997 32.287615 111.948478 0.0000967037 72.114855 0.0000967037 Z M 72.114855 0.0000967037 " transform="matrix(0.748524,0,0,0.748524,9.918768,9.265553)"/></g></g></g><mask id="caa3917076"><g filter="url(#2042554673)"><rect x="0" width="375" y="0" height="126.749998" style="fill:#000000;fill-opacity:0.2;stroke:none;"/></g></mask></g></g><g clip-rule="nonzero" clip-path="url(#9fc8261c48)"><g transform="matrix(1,0,0,1,64,9)"><g clip-path="url(#24722dc281)"><g clip-rule="nonzero" clip-path="url(#2c983839a9)"><path style=" stroke:none;fill-rule:nonzero;fill:#d9d9d9;fill-opacity:1;" d="M 0.734375 0.265625 L 53.886719 0.265625 L 53.886719 108.238281 L 0.734375 108.238281 Z M 0.734375 0.265625 "/></g></g></g></g><path style="fill:none;stroke-width:23;stroke-linecap:round;stroke-linejoin:miter;stroke:#ff3131;stroke-opacity:1;stroke-miterlimit:4;" d="M 11.502262 11.499673 L 43.252264 11.499673 " transform="matrix(0.748524,0,0,0.748524,54.933254,54.642223)"/><g clip-rule="nonzero" clip-path="url(#251815bc50)"><g transform="matrix(1,0,0,1,65,0.000000000000018429)"><g clip-path="url(#dfb9607515)"><g style="fill:#d9d9d9;fill-opacity:1;"><g transform="translate(0.856893, 108.704019)"><path style="stroke:none" d="M 29.21875 4.933594 L 7.269531 4.933594 L 7.269531 -98.8125 L 39.992188 -98.8125 L 64.894531 -26.457031 L 60.230469 -24.851562 L 60.230469 -29.78125 L 61.582031 -29.78125 L 61.582031 -24.851562 L 56.914062 -26.449219 L 81.6875 -98.8125 L 113.839844 -98.8125 L 113.839844 4.933594 L 86.378906 4.933594 L 86.378906 -62.03125 L 91.3125 -62.03125 L 90.53125 -57.160156 L 88.925781 -57.417969 L 89.707031 -62.289062 L 94.363281 -60.664062 L 71.507812 4.933594 L 49.023438 4.933594 L 26.164062 -60.664062 L 30.824219 -62.289062 L 31.601562 -57.417969 L 29.996094 -57.160156 L 29.21875 -62.03125 L 34.148438 -62.03125 L 34.148438 4.933594 Z M 29.21875 -4.933594 L 29.21875 0 L 24.285156 0 L 24.285156 -66.234375 L 34.121094 -67.808594 L 57.183594 -1.621094 L 52.527344 0 L 52.527344 -4.933594 L 68.003906 -4.933594 L 68.003906 0 L 63.34375 -1.621094 L 86.40625 -67.808594 L 96.242188 -66.234375 L 96.242188 0 L 91.3125 0 L 91.3125 -4.933594 L 108.90625 -4.933594 L 108.90625 0 L 103.972656 0 L 103.972656 -93.878906 L 108.90625 -93.878906 L 108.90625 -88.949219 L 85.210938 -88.949219 L 85.210938 -93.878906 L 89.878906 -92.28125 L 65.105469 -19.917969 L 56.714844 -19.917969 L 31.808594 -92.273438 L 36.472656 -93.878906 L 36.472656 -88.949219 L 12.199219 -88.949219 L 12.199219 -93.878906 L 17.132812 -93.878906 L 17.132812 0 L 12.199219 0 L 12.199219 -4.933594 Z M 29.21875 -4.933594 "/></g></g><g style="fill:#d9d9d9;fill-opacity:1;"><g transform="translate(118.072523, 108.704019)"><path style="stroke:none" d="M 35.691406 -93.878906 L 35.691406 -15.539062 L 30.757812 -15.539062 L 30.757812 -20.472656 L 77.878906 -20.472656 L 77.878906 4.933594 L 7.269531 4.933594 L 7.269531 -98.8125 L 35.691406 -98.8125 Z M 25.828125 -93.878906 L 30.757812 -93.878906 L 30.757812 -88.949219 L 12.199219 -88.949219 L 12.199219 -93.878906 L 17.132812 -93.878906 L 17.132812 0 L 12.199219 0 L 12.199219 -4.933594 L 72.945312 -4.933594 L 72.945312 0 L 68.015625 0 L 68.015625 -15.539062 L 72.945312 -15.539062 L 72.945312 -10.609375 L 25.828125 -10.609375 Z M 25.828125 -93.878906 "/></g></g><g style="fill:#d9d9d9;fill-opacity:1;"><g transform="translate(176.472116, 108.704019)"><path style="stroke:none" d="M 80.191406 -93.878906 L 80.191406 -73.34375 L 48.160156 -73.34375 L 48.160156 -78.277344 L 53.09375 -78.277344 L 53.09375 4.933594 L 24.734375 4.933594 L 24.734375 -78.277344 L 29.667969 -78.277344 L 29.667969 -73.34375 L -2.363281 -73.34375 L -2.363281 -98.8125 L 80.191406 -98.8125 Z M 70.328125 -93.878906 L 75.257812 -93.878906 L 75.257812 -88.949219 L 2.570312 -88.949219 L 2.570312 -93.878906 L 7.5 -93.878906 L 7.5 -78.277344 L 2.570312 -78.277344 L 2.570312 -83.207031 L 34.597656 -83.207031 L 34.597656 0 L 29.667969 0 L 29.667969 -4.933594 L 48.160156 -4.933594 L 48.160156 0 L 43.226562 0 L 43.226562 -83.207031 L 75.257812 -83.207031 L 75.257812 -78.277344 L 70.328125 -78.277344 Z M 70.328125 -93.878906 "/></g></g><g style="fill:#d9d9d9;fill-opacity:1;"><g transform="translate(250.347049, 108.704019)"><path style="stroke:none" d="M 7.269531 -98.8125 L 35.691406 -98.8125 L 35.691406 4.933594 L 7.269531 4.933594 Z M 17.132812 -88.949219 L 17.132812 -4.933594 L 25.828125 -4.933594 L 25.828125 -88.949219 Z M 17.132812 -88.949219 "/></g></g><g style="fill:#4682b4;fill-opacity:1;"><g transform="translate(0.856893, 108.704019)"><path style="stroke:none" d="M 29.21875 0 L 12.203125 0 L 12.203125 -93.890625 L 36.46875 -93.890625 L 60.234375 -24.859375 L 61.578125 -24.859375 L 85.21875 -93.890625 L 108.90625 -93.890625 L 108.90625 0 L 91.3125 0 L 91.3125 -62.03125 L 89.703125 -62.296875 L 68 0 L 52.53125 0 L 30.828125 -62.296875 L 29.21875 -62.03125 Z M 29.21875 0 "/></g></g><g style="fill:#4682b4;fill-opacity:1;"><g transform="translate(118.072523, 108.704019)"><path style="stroke:none" d="M 30.765625 -93.890625 L 30.765625 -15.546875 L 72.953125 -15.546875 L 72.953125 0 L 12.203125 0 L 12.203125 -93.890625 Z M 30.765625 -93.890625 "/></g></g><g style="fill:#4682b4;fill-opacity:1;"><g transform="translate(176.472116, 108.704019)"><path style="stroke:none" d="M 75.265625 -93.890625 L 75.265625 -78.28125 L 48.15625 -78.28125 L 48.15625 0 L 29.671875 0 L 29.671875 -78.28125 L 2.5625 -78.28125 L 2.5625 -93.890625 Z M 75.265625 -93.890625 "/></g></g><g style="fill:#4682b4;fill-opacity:1;"><g transform="translate(250.347049, 108.704019)"><path style="stroke:none" d="M 30.765625 0 L 12.203125 0 L 12.203125 -93.890625 L 30.765625 -93.890625 Z M 30.765625 0 "/></g></g></g></g></g></g></svg>